<svg width="2000" height="358" viewBox="0 0 2000 358" fill="none" xmlns="http://www.w3.org/2000/svg">
<g clip-path="url(#clip0_59_4)">
<path d="M34.0535 273V8.39998H70.7195L170.134 168.294C180.718 185.304 192.436 207.228 203.398 228.018H203.776C202.642 206.094 201.886 171.696 201.886 160.734V8.39998H235.528V273H196.972L98.6915 113.106C92.6435 103.278 76.3895 73.416 66.1835 53.382H65.8055C66.9395 78.708 67.6955 113.484 67.6955 120.666V273H34.0535ZM357.362 79.464C411.794 79.464 437.12 107.058 445.058 137.298L412.928 143.724C407.636 121.044 391.004 106.68 356.606 106.68C327.5 106.68 310.49 114.618 310.49 138.432C310.49 158.088 329.768 162.246 346.022 162.246H377.396V188.706H346.4C327.5 188.706 305.954 193.242 305.954 218.946C305.954 239.358 316.916 250.32 352.448 250.32C389.114 250.32 408.014 231.798 413.306 210.252L445.814 214.032C436.364 248.808 407.258 277.536 351.692 277.536C290.834 277.536 268.532 255.99 268.532 222.726C268.532 201.18 279.116 182.658 304.442 175.098C285.164 169.05 273.446 154.308 273.446 136.164C273.446 99.12 301.796 79.464 357.362 79.464ZM342.242 56.406L355.472 8.39998H389.87L366.434 56.406H342.242ZM554.341 277.536C495.373 277.536 459.841 240.114 459.841 178.5C459.841 121.044 495.751 79.464 554.341 79.464C612.175 79.464 648.463 121.422 648.463 178.5C648.463 237.846 611.041 277.536 554.341 277.536ZM554.341 250.698C573.619 250.698 587.227 245.028 596.299 234.822C607.261 222.348 611.797 203.07 611.797 178.5C611.797 153.93 607.261 134.274 595.921 121.8C586.849 111.972 573.619 106.302 554.341 106.302C535.819 106.302 522.211 111.216 513.139 120.666C501.043 133.14 496.507 153.174 496.507 178.5C496.507 203.826 501.043 223.86 513.139 236.334C522.211 245.784 535.441 250.698 554.341 250.698ZM755.133 79.464C809.565 79.464 834.891 107.058 842.829 137.298L810.699 143.724C805.407 121.044 788.775 106.68 754.377 106.68C725.271 106.68 708.261 114.618 708.261 138.432C708.261 158.088 727.539 162.246 743.793 162.246H775.167V188.706H744.171C725.271 188.706 703.725 193.242 703.725 218.946C703.725 239.358 714.687 250.32 750.219 250.32C786.885 250.32 805.785 231.798 811.077 210.252L843.585 214.032C834.135 248.808 805.029 277.536 749.463 277.536C688.605 277.536 666.303 255.99 666.303 222.726C666.303 201.18 676.887 182.658 702.213 175.098C682.935 169.05 671.217 154.308 671.217 136.164C671.217 99.12 699.567 79.464 755.133 79.464ZM940.394 106.68C929.054 110.082 920.738 116.886 914.312 123.312C900.704 137.298 894.278 155.82 894.278 179.634C894.278 204.96 901.46 223.482 916.58 236.334C927.92 246.162 943.796 250.32 963.452 251.076V127.092C963.452 96.096 983.486 79.464 1011.08 79.464C1056.06 79.464 1102.93 108.57 1102.93 180.012C1102.93 237.09 1061.35 275.646 997.094 277.536V348.6H963.452V277.536C895.412 276.024 857.612 238.98 857.612 180.39C857.612 130.494 885.584 89.292 930.188 79.464L940.394 106.68ZM997.094 251.076C1016.75 250.32 1033 245.784 1043.59 236.334C1058.71 223.104 1066.27 204.582 1066.27 179.634C1066.27 146.748 1057.2 130.116 1045.1 118.776C1034.14 109.326 1023.55 106.302 1014.48 106.302C1002.76 106.302 997.094 113.862 997.094 128.982V251.076ZM1131.89 273V84H1165.91V112.728C1175.36 91.56 1193.88 79.464 1224.12 79.464C1249.07 79.464 1266.84 86.268 1280.45 100.632C1294.81 116.13 1295.19 140.7 1295.19 160.734V348.6H1260.03V162.624C1260.03 145.236 1260.41 129.738 1248.69 118.776C1238.11 108.192 1225.64 107.814 1215.05 107.814C1198.42 107.814 1165.91 114.618 1165.91 168.672V273H1131.89ZM1418.95 4.24199C1465.82 4.24199 1500.22 28.434 1500.22 71.148C1500.22 101.766 1482.45 121.8 1457.88 130.494C1488.88 138.054 1514.58 161.868 1514.58 201.18C1514.58 248.43 1477.16 278.292 1432.56 278.292C1406.47 278.292 1382.28 266.952 1367.92 244.65V348.6H1333.9V85.134C1333.9 34.104 1367.16 4.24199 1418.95 4.24199ZM1419.33 31.08C1384.93 31.08 1367.92 52.248 1367.92 84.756V186.816C1367.92 228.396 1392.49 251.832 1425.37 251.832C1457.5 251.832 1479.43 231.42 1479.43 198.912C1479.43 165.27 1456.37 145.992 1424.24 145.992H1412.14V119.154H1422.73C1441.25 119.154 1466.2 106.302 1466.2 73.794C1466.2 46.956 1449.57 31.08 1419.33 31.08ZM1576.22 232.176C1576.22 242.004 1576.22 246.54 1587.18 246.54C1590.2 246.54 1593.23 246.162 1598.14 245.028L1598.9 273C1591.71 274.134 1585.29 274.512 1577.73 274.512C1555.43 274.512 1542.2 262.038 1542.2 238.98V84H1576.22V232.176ZM1625.74 273V84H1659.76V172.452L1745.95 84H1786.77L1714.2 159.978L1787.53 273H1748.22L1691.52 181.902L1659.76 211.008V273H1625.74ZM1871.99 79.086C1897.32 79.086 1917.35 89.67 1931.71 111.594V84H1965.73V232.176C1965.73 242.004 1965.73 246.54 1976.7 246.54C1979.72 246.54 1982.74 246.162 1987.66 245.028L1988.41 273C1981.23 274.134 1974.81 274.512 1967.25 274.512C1946.83 274.512 1935.49 265.44 1933.6 245.784C1919.24 267.708 1898.07 277.536 1870.86 277.536C1819.83 277.536 1785.05 238.224 1785.05 178.5C1785.05 116.886 1821.72 79.086 1871.99 79.086ZM1878.79 250.32C1895.43 250.32 1907.14 245.406 1915.46 237.468C1929.45 223.482 1932.85 200.424 1932.85 178.122C1932.85 130.494 1914.33 105.924 1878.04 105.924C1858.38 105.924 1845.53 111.594 1836.84 121.422C1825.87 133.896 1822.47 153.93 1822.47 178.5C1822.47 223.86 1836.46 250.32 1878.79 250.32ZM1869.34 56.406L1882.57 8.39998H1916.97L1893.54 56.406H1869.34Z" fill="white"/>
</g>
<defs>
<clipPath id="clip0_59_4">
<rect width="2000" height="358" fill="white"/>
</clipPath>
</defs>
</svg>
