<svg width="782" height="169" viewBox="0 0 782 169" fill="none" xmlns="http://www.w3.org/2000/svg">
<path d="M83 14H32.4565L8 90.3341H35.2283L10.2826 154L81.0435 64.9977H53.4422L83 14Z" fill="#9842FF"/>
<path d="M147.08 117V33H158.72L190.28 83.76C193.64 89.16 197.36 96.12 200.84 102.72H200.96C200.6 95.76 200.36 84.84 200.36 81.36V33H211.04V117H198.8L167.6 66.24C165.68 63.12 160.52 53.64 157.28 47.28H157.16C157.52 55.32 157.76 66.36 157.76 68.64V117H147.08ZM250.421 55.56C267.701 55.56 275.741 64.32 278.261 73.92L268.061 75.96C266.381 68.76 261.101 64.2 250.181 64.2C240.941 64.2 235.541 66.72 235.541 74.28C235.541 80.52 241.661 81.84 246.821 81.84H256.781V90.24H246.941C240.941 90.24 234.101 91.68 234.101 99.84C234.101 106.32 237.581 109.8 248.861 109.8C260.501 109.8 266.501 103.92 268.181 97.08L278.501 98.28C275.501 109.32 266.261 118.44 248.621 118.44C229.301 118.44 222.221 111.6 222.221 101.04C222.221 94.2 225.581 88.32 233.621 85.92C227.501 84 223.781 79.32 223.781 73.56C223.781 61.8 232.781 55.56 250.421 55.56ZM245.621 48.24L249.821 33H260.741L253.301 48.24H245.621ZM312.954 118.44C294.234 118.44 282.954 106.56 282.954 87C282.954 68.76 294.354 55.56 312.954 55.56C331.314 55.56 342.834 68.88 342.834 87C342.834 105.84 330.954 118.44 312.954 118.44ZM312.954 109.92C319.074 109.92 323.394 108.12 326.274 104.88C329.754 100.92 331.194 94.8 331.194 87C331.194 79.2 329.754 72.96 326.154 69C323.274 65.88 319.074 64.08 312.954 64.08C307.074 64.08 302.754 65.64 299.874 68.64C296.034 72.6 294.594 78.96 294.594 87C294.594 95.04 296.034 101.4 299.874 105.36C302.754 108.36 306.954 109.92 312.954 109.92ZM376.697 55.56C393.977 55.56 402.017 64.32 404.537 73.92L394.337 75.96C392.657 68.76 387.377 64.2 376.457 64.2C367.217 64.2 361.817 66.72 361.817 74.28C361.817 80.52 367.937 81.84 373.097 81.84H383.057V90.24H373.217C367.217 90.24 360.377 91.68 360.377 99.84C360.377 106.32 363.857 109.8 375.137 109.8C386.777 109.8 392.777 103.92 394.457 97.08L404.777 98.28C401.777 109.32 392.537 118.44 374.897 118.44C355.577 118.44 348.497 111.6 348.497 101.04C348.497 94.2 351.857 88.32 359.897 85.92C353.777 84 350.057 79.32 350.057 73.56C350.057 61.8 359.057 55.56 376.697 55.56ZM435.51 64.2C431.91 65.28 429.27 67.44 427.23 69.48C422.91 73.92 420.87 79.8 420.87 87.36C420.87 95.4 423.15 101.28 427.95 105.36C431.55 108.48 436.59 109.8 442.83 110.04V70.68C442.83 60.84 449.19 55.56 457.95 55.56C472.23 55.56 487.11 64.8 487.11 87.48C487.11 105.6 473.91 117.84 453.51 118.44V141H442.83V118.44C421.23 117.96 409.23 106.2 409.23 87.6C409.23 71.76 418.11 58.68 432.27 55.56L435.51 64.2ZM453.51 110.04C459.75 109.8 464.91 108.36 468.27 105.36C473.07 101.16 475.47 95.28 475.47 87.36C475.47 76.92 472.59 71.64 468.75 68.04C465.27 65.04 461.91 64.08 459.03 64.08C455.31 64.08 453.51 66.48 453.51 71.28V110.04ZM496.303 117V57H507.103V66.12C510.103 59.4 515.983 55.56 525.583 55.56C533.503 55.56 539.143 57.72 543.463 62.28C548.023 67.2 548.143 75 548.143 81.36V141H536.983V81.96C536.983 76.44 537.103 71.52 533.383 68.04C530.023 64.68 526.063 64.56 522.703 64.56C517.423 64.56 507.103 66.72 507.103 83.88V117H496.303ZM587.432 31.68C602.312 31.68 613.232 39.36 613.232 52.92C613.232 62.64 607.592 69 599.792 71.76C609.632 74.16 617.792 81.72 617.792 94.2C617.792 109.2 605.912 118.68 591.752 118.68C583.472 118.68 575.792 115.08 571.232 108V141H560.432V57.36C560.432 41.16 570.992 31.68 587.432 31.68ZM587.552 40.2C576.632 40.2 571.232 46.92 571.232 57.24V89.64C571.232 102.84 579.032 110.28 589.472 110.28C599.672 110.28 606.632 103.8 606.632 93.48C606.632 82.8 599.312 76.68 589.112 76.68H585.272V68.16H588.632C594.512 68.16 602.432 64.08 602.432 53.76C602.432 45.24 597.152 40.2 587.552 40.2ZM637.359 104.04C637.359 107.16 637.359 108.6 640.839 108.6C641.799 108.6 642.759 108.48 644.319 108.12L644.559 117C642.279 117.36 640.239 117.48 637.839 117.48C630.759 117.48 626.559 113.52 626.559 106.2V57H637.359V104.04ZM653.082 117V57H663.882V85.08L691.242 57H704.202L681.162 81.12L704.442 117H691.962L673.962 88.08L663.882 97.32V117H653.082ZM731.255 55.44C739.295 55.44 745.655 58.8 750.215 65.76V57H761.015V104.04C761.015 107.16 761.015 108.6 764.495 108.6C765.455 108.6 766.415 108.48 767.975 108.12L768.215 117C765.935 117.36 763.895 117.48 761.495 117.48C755.015 117.48 751.415 114.6 750.815 108.36C746.255 115.32 739.535 118.44 730.895 118.44C714.695 118.44 703.655 105.96 703.655 87C703.655 67.44 715.295 55.44 731.255 55.44ZM733.415 109.8C738.695 109.8 742.415 108.24 745.055 105.72C749.495 101.28 750.575 93.96 750.575 86.88C750.575 71.76 744.695 63.96 733.175 63.96C726.935 63.96 722.855 65.76 720.095 68.88C716.615 72.84 715.535 79.2 715.535 87C715.535 101.4 719.975 109.8 733.415 109.8ZM730.415 48.24L734.615 33H745.535L738.095 48.24H730.415Z" fill="#4E148C"/>
</svg>
